<svg width="29" height="30" viewBox="0 0 29 30" fill="none" xmlns="http://www.w3.org/2000/svg">
<g id="Frame" clip-path="url(#clip0_272_137)">
<path id="Vector" d="M14.2891 2.5C20.8621 2.5 26.1967 8.1 26.1967 15C26.1967 21.9 20.8621 27.5 14.2891 27.5C7.71617 27.5 2.38159 21.9 2.38159 15C2.38159 8.1 7.71617 2.5 14.2891 2.5ZM14.2891 5C9.02601 5 4.7631 9.475 4.7631 15C4.7631 20.525 9.02601 25 14.2891 25C19.5523 25 23.8152 20.525 23.8152 15C23.8152 9.475 19.5523 5 14.2891 5ZM14.2891 8.75C16.4563 8.75 18.3532 9.96625 19.3951 11.785L17.3541 13.0712C17.033 12.5091 16.577 12.0451 16.0317 11.7256C15.4864 11.406 14.8709 11.2422 14.2464 11.2503C13.622 11.2584 13.0105 11.4382 12.4729 11.7718C11.9353 12.1054 11.4904 12.581 11.1825 13.1514C10.8747 13.7218 10.7147 14.3669 10.7184 15.0224C10.7221 15.678 10.8895 16.321 11.2038 16.8875C11.5182 17.454 11.9684 17.924 12.5098 18.2508C13.0512 18.5776 13.6647 18.7497 14.2891 18.75C14.9061 18.7504 15.5127 18.583 16.0496 18.264C16.5866 17.945 17.0356 17.4854 17.353 16.93L19.3951 18.215C18.7259 19.3883 17.7086 20.2987 16.4991 20.8067C15.2896 21.3147 13.9548 21.3921 12.6994 21.0272C11.4439 20.6622 10.3372 19.875 9.54891 18.7863C8.76063 17.6976 8.33432 16.3675 8.33537 15C8.33537 11.55 11.0027 8.75 14.2891 8.75Z" fill="white"/>
</g>
<defs>
<clipPath id="clip0_272_137">
<rect width="28.5781" height="30" fill="white"/>
</clipPath>
</defs>
</svg>
