<svg width="33" height="30" viewBox="0 0 33 30" fill="none" xmlns="http://www.w3.org/2000/svg">
<g id="Heart 1">
<path id="Vector" fill-rule="evenodd" clip-rule="evenodd" d="M29.3953 2.52835C27.4039 0.497599 25.1871 -0.130637 23.1052 0.0217686C21.0797 0.170053 19.2555 1.04871 17.9232 1.89385C16.8725 2.56033 15.377 2.56034 14.3264 1.89385C12.994 1.04872 11.1699 0.170073 9.14435 0.0217917C7.06251 -0.130611 4.84568 0.497621 2.85435 2.52836C0.50343 4.92579 -0.234146 7.88533 0.0620351 10.879C0.354802 13.8381 1.6528 16.8463 3.38396 19.5117C5.11975 22.1843 7.33704 24.5838 9.56149 26.3262C11.737 28.0301 14.1041 29.2499 16.1248 29.2499C18.1456 29.2499 20.5127 28.0301 22.6882 26.3261C24.9126 24.5838 27.1299 22.1843 28.8657 19.5117C30.5968 16.8463 31.8948 13.8381 32.1876 10.879C32.4838 7.88532 31.7462 4.92578 29.3953 2.52835ZM19.1284 3.79383C20.3066 3.04646 21.7649 2.37591 23.2695 2.26576C24.7178 2.15974 26.2788 2.56385 27.7888 4.10368C29.5936 5.94424 30.1912 8.20481 29.9485 10.6575C29.7024 13.1446 28.5876 15.8089 26.9787 18.2862C25.3744 20.7564 23.3243 22.9698 21.3008 24.5548C19.2283 26.1781 17.3667 26.9999 16.1248 26.9999C14.883 26.9999 13.0214 26.1781 10.9489 24.5548C8.92532 22.9698 6.87522 20.7564 5.27091 18.2862C3.66198 15.8089 2.54717 13.1446 2.3011 10.6575C2.05845 8.20481 2.656 5.94424 4.46085 4.10369C5.97079 2.56387 7.53179 2.15976 8.98008 2.26579C10.4847 2.37593 11.943 3.04647 13.1211 3.79383C14.9075 4.92701 17.3421 4.92701 19.1284 3.79383Z" fill="#6E6B6B"/>
</g>
</svg>
