<svg width="16" height="14" viewBox="0 0 16 14" fill="none" xmlns="http://www.w3.org/2000/svg">
<g id="Heart 1">
<path id="Vector" fill-rule="evenodd" clip-rule="evenodd" d="M13.8978 1.62373C13.0128 0.72117 12.0275 0.441954 11.1022 0.50969C10.202 0.575594 9.39126 0.966108 8.79912 1.34173C8.33216 1.63794 7.66749 1.63794 7.20052 1.34173C6.60838 0.966112 5.79765 0.575603 4.89741 0.5097C3.97215 0.441966 2.98689 0.72118 2.10185 1.62373C1.057 2.68925 0.729187 4.00461 0.860823 5.33512C0.990942 6.65029 1.56783 7.98725 2.33724 9.1719C3.1087 10.3597 4.09416 11.4262 5.0828 12.2005C6.0497 12.9579 7.10172 13.5 7.99984 13.5C8.89796 13.5 9.94999 12.9579 10.9169 12.2005C11.9055 11.4262 12.891 10.3597 13.6624 9.1719C14.4318 7.98724 15.0087 6.65029 15.1388 5.33512C15.2705 4.0046 14.9427 2.68925 13.8978 1.62373ZM9.33478 2.18616C9.85841 1.854 10.5065 1.55598 11.1753 1.50702C11.8189 1.4599 12.5127 1.6395 13.1838 2.32387C13.986 3.1419 14.2515 4.1466 14.1437 5.23666C14.0343 6.34206 13.5389 7.52621 12.8238 8.62722C12.1108 9.72506 11.1996 10.7088 10.3003 11.4133C9.37915 12.1347 8.55177 12.5 7.99984 12.5C7.44792 12.5 6.62054 12.1347 5.69943 11.4133C4.80006 10.7088 3.8889 9.72506 3.17588 8.62722C2.4608 7.52621 1.96533 6.34206 1.85596 5.23666C1.74812 4.1466 2.0137 3.1419 2.81585 2.32388C3.48694 1.63951 4.18071 1.45991 4.8244 1.50703C5.49311 1.55598 6.14123 1.854 6.66487 2.18616C7.45882 2.6898 8.54083 2.6898 9.33478 2.18616Z" fill="#8C8C8C"/>
</g>
</svg>
