<svg width="201" height="56" viewBox="0 0 201 56" fill="none" xmlns="http://www.w3.org/2000/svg">
<g id="Social media">
<g id="Facebook">
<g id="Ellipse 1" filter="url(#filter0_d_272_141)">
<ellipse cx="27.3224" cy="27" rx="17.1469" ry="18" fill="white"/>
</g>
<path id="Vector" d="M29.1484 28.125H30.8353L31.51 25.125H29.1484V23.625C29.1484 22.8525 29.1484 22.125 30.4979 22.125H31.51V19.605C31.2901 19.5728 30.4594 19.5 29.5822 19.5C27.7503 19.5 26.4493 20.7427 26.4493 23.025V25.125H24.425V28.125H26.4493V34.5H29.1484V28.125Z" fill="#FFA902"/>
</g>
<g id="Twitter">
<g id="Ellipse 2" filter="url(#filter1_d_272_141)">
<ellipse cx="74.9525" cy="27" rx="17.1469" ry="18" fill="white"/>
</g>
<path id="Vector_2" d="M82.2854 22.2419C81.7703 22.4952 81.224 22.6616 80.6646 22.7354C81.2542 22.3435 81.6955 21.7267 81.9062 20.9999C81.3529 21.3659 80.7463 21.6224 80.114 21.7612C79.6893 21.2561 79.1264 20.9212 78.5128 20.8084C77.8991 20.6956 77.2692 20.8113 76.7208 21.1375C76.1725 21.4638 75.7364 21.9822 75.4805 22.6123C75.2246 23.2424 75.1631 23.9488 75.3057 24.6217C74.1836 24.5592 73.0859 24.2351 72.0839 23.6704C71.0818 23.1058 70.1978 22.3132 69.4892 21.3442C69.2384 21.823 69.1066 22.3674 69.1073 22.9214C69.1073 24.0089 69.6053 24.9697 70.3624 25.5322C69.9143 25.5165 69.4762 25.382 69.0844 25.1399V25.1789C69.0845 25.9032 69.31 26.6052 69.7226 27.1657C70.1352 27.7263 70.7095 28.1111 71.3482 28.2547C70.9323 28.38 70.4962 28.3984 70.0729 28.3087C70.253 28.9321 70.6039 29.4773 71.0767 29.868C71.5494 30.2587 72.1202 30.4753 72.7092 30.4874C72.1238 30.9984 71.4536 31.3762 70.7368 31.5991C70.02 31.822 69.2707 31.8856 68.5317 31.7864C69.8217 32.7085 71.3233 33.198 72.857 33.1964C78.0479 33.1964 80.8866 28.4167 80.8866 24.2714C80.8866 24.1364 80.8832 23.9999 80.8778 23.8664C81.4304 23.4226 81.9073 22.8727 82.2861 22.2427L82.2854 22.2419Z" fill="#FFA902"/>
</g>
<g id="Instagram">
<g id="Ellipse 3" filter="url(#filter2_d_272_141)">
<ellipse cx="123.536" cy="27" rx="17.1469" ry="18" fill="white"/>
</g>
<path id="Vector_3" d="M123.535 19.5C125.476 19.5 125.719 19.5075 126.48 19.545C127.241 19.5825 127.759 19.7078 128.215 19.8938C128.686 20.0843 129.084 20.3422 129.481 20.7585C129.844 21.1334 130.125 21.5869 130.305 22.0875C130.481 22.5652 130.601 23.1097 130.637 23.9085C130.67 24.708 130.68 24.9622 130.68 27C130.68 29.0378 130.673 29.292 130.637 30.0915C130.601 30.8903 130.481 31.434 130.305 31.9125C130.126 32.4133 129.845 32.867 129.481 33.2415C129.124 33.6227 128.692 33.9178 128.215 34.1063C127.76 34.2915 127.241 34.4175 126.48 34.455C125.719 34.4903 125.476 34.5 123.535 34.5C121.594 34.5 121.352 34.4925 120.59 34.455C119.829 34.4175 119.311 34.2915 118.855 34.1063C118.378 33.9184 117.946 33.6232 117.589 33.2415C117.226 32.8666 116.945 32.4131 116.766 31.9125C116.589 31.4347 116.469 30.8903 116.433 30.0915C116.4 29.292 116.391 29.0378 116.391 27C116.391 24.9622 116.398 24.708 116.433 23.9085C116.469 23.109 116.589 22.566 116.766 22.0875C116.944 21.5866 117.226 21.133 117.589 20.7585C117.946 20.3769 118.379 20.0818 118.855 19.8938C119.311 19.7078 119.829 19.5825 120.59 19.545C121.352 19.5097 121.594 19.5 123.535 19.5ZM123.535 23.25C122.588 23.25 121.679 23.6451 121.009 24.3483C120.339 25.0516 119.963 26.0054 119.963 27C119.963 27.9946 120.339 28.9484 121.009 29.6517C121.679 30.3549 122.588 30.75 123.535 30.75C124.483 30.75 125.391 30.3549 126.061 29.6517C126.731 28.9484 127.107 27.9946 127.107 27C127.107 26.0054 126.731 25.0516 126.061 24.3483C125.391 23.6451 124.483 23.25 123.535 23.25ZM128.179 23.0625C128.179 22.8139 128.085 22.5754 127.918 22.3996C127.75 22.2238 127.523 22.125 127.286 22.125C127.049 22.125 126.822 22.2238 126.655 22.3996C126.487 22.5754 126.393 22.8139 126.393 23.0625C126.393 23.3111 126.487 23.5496 126.655 23.7254C126.822 23.9012 127.049 24 127.286 24C127.523 24 127.75 23.9012 127.918 23.7254C128.085 23.5496 128.179 23.3111 128.179 23.0625ZM123.535 24.75C124.104 24.75 124.649 24.9871 125.051 25.409C125.453 25.831 125.679 26.4033 125.679 27C125.679 27.5967 125.453 28.169 125.051 28.591C124.649 29.0129 124.104 29.25 123.535 29.25C122.967 29.25 122.422 29.0129 122.02 28.591C121.618 28.169 121.392 27.5967 121.392 27C121.392 26.4033 121.618 25.831 122.02 25.409C122.422 24.9871 122.967 24.75 123.535 24.75Z" fill="#FFA902"/>
</g>
<g id="Youtube">
<g id="Ellipse 4" filter="url(#filter3_d_272_141)">
<ellipse cx="173.071" cy="27" rx="17.1469" ry="18" fill="white"/>
</g>
<path id="Vector_4" d="M179.986 22.8735C180.295 24.21 180.295 27 180.295 27C180.295 27 180.295 29.79 179.986 31.1265C179.815 31.8653 179.313 32.4465 178.678 32.643C177.525 33 173.547 33 173.547 33C173.547 33 169.571 33 168.415 32.643C167.778 32.4435 167.277 31.863 167.108 31.1265C166.799 29.79 166.799 27 166.799 27C166.799 27 166.799 24.21 167.108 22.8735C167.279 22.1348 167.78 21.5535 168.415 21.357C169.571 21 173.547 21 173.547 21C173.547 21 177.525 21 178.678 21.357C179.316 21.5565 179.817 22.137 179.986 22.8735ZM172.197 29.625L176.246 27L172.197 24.375V29.625Z" fill="#FFA902"/>
</g>
</g>
<defs>
<filter id="filter0_d_272_141" x="0.175537" y="0" width="54.2937" height="56" filterUnits="userSpaceOnUse" color-interpolation-filters="sRGB">
<feFlood flood-opacity="0" result="BackgroundImageFix"/>
<feColorMatrix in="SourceAlpha" type="matrix" values="0 0 0 0 0 0 0 0 0 0 0 0 0 0 0 0 0 0 127 0" result="hardAlpha"/>
<feOffset dy="1"/>
<feGaussianBlur stdDeviation="5"/>
<feColorMatrix type="matrix" values="0 0 0 0 0 0 0 0 0 0 0 0 0 0 0 0 0 0 0.1 0"/>
<feBlend mode="normal" in2="BackgroundImageFix" result="effect1_dropShadow_272_141"/>
<feBlend mode="normal" in="SourceGraphic" in2="effect1_dropShadow_272_141" result="shape"/>
</filter>
<filter id="filter1_d_272_141" x="47.8057" y="0" width="54.2939" height="56" filterUnits="userSpaceOnUse" color-interpolation-filters="sRGB">
<feFlood flood-opacity="0" result="BackgroundImageFix"/>
<feColorMatrix in="SourceAlpha" type="matrix" values="0 0 0 0 0 0 0 0 0 0 0 0 0 0 0 0 0 0 127 0" result="hardAlpha"/>
<feOffset dy="1"/>
<feGaussianBlur stdDeviation="5"/>
<feColorMatrix type="matrix" values="0 0 0 0 0 0 0 0 0 0 0 0 0 0 0 0 0 0 0.1 0"/>
<feBlend mode="normal" in2="BackgroundImageFix" result="effect1_dropShadow_272_141"/>
<feBlend mode="normal" in="SourceGraphic" in2="effect1_dropShadow_272_141" result="shape"/>
</filter>
<filter id="filter2_d_272_141" x="96.3887" y="0" width="54.2939" height="56" filterUnits="userSpaceOnUse" color-interpolation-filters="sRGB">
<feFlood flood-opacity="0" result="BackgroundImageFix"/>
<feColorMatrix in="SourceAlpha" type="matrix" values="0 0 0 0 0 0 0 0 0 0 0 0 0 0 0 0 0 0 127 0" result="hardAlpha"/>
<feOffset dy="1"/>
<feGaussianBlur stdDeviation="5"/>
<feColorMatrix type="matrix" values="0 0 0 0 0 0 0 0 0 0 0 0 0 0 0 0 0 0 0.1 0"/>
<feBlend mode="normal" in2="BackgroundImageFix" result="effect1_dropShadow_272_141"/>
<feBlend mode="normal" in="SourceGraphic" in2="effect1_dropShadow_272_141" result="shape"/>
</filter>
<filter id="filter3_d_272_141" x="145.924" y="0" width="54.2939" height="56" filterUnits="userSpaceOnUse" color-interpolation-filters="sRGB">
<feFlood flood-opacity="0" result="BackgroundImageFix"/>
<feColorMatrix in="SourceAlpha" type="matrix" values="0 0 0 0 0 0 0 0 0 0 0 0 0 0 0 0 0 0 127 0" result="hardAlpha"/>
<feOffset dy="1"/>
<feGaussianBlur stdDeviation="5"/>
<feColorMatrix type="matrix" values="0 0 0 0 0 0 0 0 0 0 0 0 0 0 0 0 0 0 0.1 0"/>
<feBlend mode="normal" in2="BackgroundImageFix" result="effect1_dropShadow_272_141"/>
<feBlend mode="normal" in="SourceGraphic" in2="effect1_dropShadow_272_141" result="shape"/>
</filter>
</defs>
</svg>
